<svg xmlns="http://www.w3.org/2000/svg" version="1.1" width="500" height="500">
    <rect x="0" y="0" width="500" height="500" fill="#F7CFA0" />
    <g>
        <!-- Vertical lines -->
        <line x1="25" y1="25" x2="25" y2="475" stroke="black" stroke-width="1" />
        <line x1="75" y1="25" x2="75" y2="475" stroke="black" stroke-width="1" />
        <line x1="125" y1="25" x2="125" y2="475" stroke="black" stroke-width="1" />
        <line x1="175" y1="25" x2="175" y2="475" stroke="black" stroke-width="1" />
        <line x1="225" y1="25" x2="225" y2="475" stroke="black" stroke-width="1" />
        <line x1="275" y1="25" x2="275" y2="475" stroke="black" stroke-width="1" />
        <line x1="325" y1="25" x2="325" y2="475" stroke="black" stroke-width="1" />
        <line x1="375" y1="25" x2="375" y2="475" stroke="black" stroke-width="1" />
        <line x1="425" y1="25" x2="425" y2="475" stroke="black" stroke-width="1" />
        <line x1="475" y1="25" x2="475" y2="475" stroke="black" stroke-width="1" />

        <!-- Horizontal lines -->
        <line x1="25" y1="25" x2="475" y2="25" stroke="black" stroke-width="1" />
        <line x1="25" y1="75" x2="475" y2="75" stroke="black" stroke-width="1" />
        <line x1="25" y1="125" x2="475" y2="125" stroke="black" stroke-width="1" />
        <line x1="25" y1="175" x2="475" y2="175" stroke="black" stroke-width="1" />
        <line x1="25" y1="225" x2="475" y2="225" stroke="black" stroke-width="1" />
        <line x1="25" y1="275" x2="475" y2="275" stroke="black" stroke-width="1" />
        <line x1="25" y1="325" x2="475" y2="325" stroke="black" stroke-width="1" />
        <line x1="25" y1="375" x2="475" y2="375" stroke="black" stroke-width="1" />
        <line x1="25" y1="425" x2="475" y2="425" stroke="black" stroke-width="1" />
        <line x1="25" y1="475" x2="475" y2="475" stroke="black" stroke-width="1" />

        <!-- Star points -->
        <circle cx="125" cy="125" r="5" fill="black" />
        <circle cx="375" cy="125" r="5" fill="black" />
        <circle cx="125" cy="375" r="5" fill="black" />
        <circle cx="375" cy="375" r="5" fill="black" />
        <circle cx="250" cy="250" r="5" fill="black" />
    </g>
</svg>